%TF.GenerationSoftware,KiCad,Pcbnew,10.0.3*%
%TF.CreationDate,2026-06-24T18:27:01+03:00*%
%TF.ProjectId,555-timer-clock,3535352d-7469-46d6-9572-2d636c6f636b,A*%
%TF.SameCoordinates,Original*%
%TF.FileFunction,Copper,L2,Bot*%
%TF.FilePolarity,Positive*%
%FSLAX46Y46*%
G04 Gerber Fmt 4.6, Leading zero omitted, Abs format (unit mm)*
G04 Created by KiCad (PCBNEW 10.0.3) date 2026-06-24 18:27:01*
%MOMM*%
%LPD*%
G01*
G04 APERTURE LIST*
G04 Aperture macros list*
%AMRoundRect*
0 Rectangle with rounded corners*
0 $1 Rounding radius*
0 $2 $3 $4 $5 $6 $7 $8 $9 X,Y pos of 4 corners*
0 Add a 4 corners polygon primitive as box body*
4,1,4,$2,$3,$4,$5,$6,$7,$8,$9,$2,$3,0*
0 Add four circle primitives for the rounded corners*
1,1,$1+$1,$2,$3*
1,1,$1+$1,$4,$5*
1,1,$1+$1,$6,$7*
1,1,$1+$1,$8,$9*
0 Add four rect primitives between the rounded corners*
20,1,$1+$1,$2,$3,$4,$5,0*
20,1,$1+$1,$4,$5,$6,$7,0*
20,1,$1+$1,$6,$7,$8,$9,0*
20,1,$1+$1,$8,$9,$2,$3,0*%
G04 Aperture macros list end*
%TA.AperFunction,ComponentPad*%
%ADD10RoundRect,0.250000X-0.550000X-0.550000X0.550000X-0.550000X0.550000X0.550000X-0.550000X0.550000X0*%
%TD*%
%TA.AperFunction,ComponentPad*%
%ADD11C,1.600000*%
%TD*%
%TA.AperFunction,ComponentPad*%
%ADD12R,1.700000X1.700000*%
%TD*%
%TA.AperFunction,ComponentPad*%
%ADD13C,1.700000*%
%TD*%
%TA.AperFunction,ComponentPad*%
%ADD14RoundRect,0.250000X-0.350000X-0.350000X0.350000X-0.350000X0.350000X0.350000X-0.350000X0.350000X0*%
%TD*%
%TA.AperFunction,ComponentPad*%
%ADD15C,1.200000*%
%TD*%
%TA.AperFunction,Conductor*%
%ADD16C,0.200000*%
%TD*%
G04 APERTURE END LIST*
D10*
%TO.P,U1,1,GND_1*%
%TO.N,GND*%
X134690000Y-94690000D03*
D11*
%TO.P,U1,2,TRIG_2*%
%TO.N,Net-(U1-THRES)*%
X134690000Y-97230000D03*
%TO.P,U1,3,OUT_3*%
%TO.N,/CLK_OUT*%
X134690000Y-99770000D03*
%TO.P,U1,4,~{RST}_4*%
%TO.N,VCC*%
X134690000Y-102310000D03*
%TO.P,U1,5,CONT_5*%
%TO.N,unconnected-(U1-CONT-Pad5)*%
X142310000Y-102310000D03*
%TO.P,U1,6,THRES_6*%
%TO.N,Net-(U1-THRES)*%
X142310000Y-99770000D03*
%TO.P,U1,7,DISCH_7*%
%TO.N,Net-(U1-DISCH)*%
X142310000Y-97230000D03*
%TO.P,U1,8,VCC_8*%
%TO.N,VCC*%
X142310000Y-94690000D03*
%TD*%
%TO.P,R1,1*%
%TO.N,GND*%
X134690000Y-87500000D03*
%TO.P,R1,2*%
%TO.N,Net-(U1-DISCH)*%
X142310000Y-87500000D03*
%TD*%
D12*
%TO.P,J1,1,Pin_1_1*%
%TO.N,GND*%
X149500000Y-101080000D03*
D13*
%TO.P,J1,2,Pin_2_2*%
%TO.N,VCC*%
X149500000Y-98540000D03*
%TO.P,J1,3,Pin_3_3*%
%TO.N,/CLK_OUT*%
X149500000Y-96000000D03*
%TD*%
D11*
%TO.P,R2,1*%
%TO.N,Net-(U1-THRES)*%
X128500000Y-94880000D03*
%TO.P,R2,2*%
%TO.N,Net-(U1-DISCH)*%
X128500000Y-102500000D03*
%TD*%
D14*
%TO.P,C1,1*%
%TO.N,Net-(U1-THRES)*%
X137500000Y-107500000D03*
D15*
%TO.P,C1,2*%
%TO.N,GND*%
X139500000Y-107500000D03*
%TD*%
%TO.N,Net-(U1-THRES)*%
D16*
X134690000Y-97230000D02*
X133590000Y-98330000D01*
X133590000Y-103590000D02*
X137500000Y-107500000D01*
X133590000Y-98330000D02*
X133590000Y-103590000D01*
%TO.N,GND*%
X138600000Y-108400000D02*
X139500000Y-107500000D01*
X134690000Y-94690000D02*
X133190000Y-96190000D01*
X133190000Y-104674744D02*
X136915256Y-108400000D01*
X136915256Y-108400000D02*
X138600000Y-108400000D01*
X133190000Y-96190000D02*
X133190000Y-104674744D01*
%TO.N,VCC*%
X149500000Y-98540000D02*
X138460000Y-98540000D01*
X138460000Y-98540000D02*
X134690000Y-102310000D01*
%TO.N,/CLK_OUT*%
X138460000Y-96000000D02*
X134690000Y-99770000D01*
X149500000Y-96000000D02*
X138460000Y-96000000D01*
%TD*%
M02*
