%TF.GenerationSoftware,KiCad,Pcbnew,10.0.3*%
%TF.CreationDate,2026-06-24T18:27:01+03:00*%
%TF.ProjectId,555-timer-clock,3535352d-7469-46d6-9572-2d636c6f636b,A*%
%TF.SameCoordinates,Original*%
%TF.FileFunction,Legend,Top*%
%TF.FilePolarity,Positive*%
%FSLAX46Y46*%
G04 Gerber Fmt 4.6, Leading zero omitted, Abs format (unit mm)*
G04 Created by KiCad (PCBNEW 10.0.3) date 2026-06-24 18:27:01*
%MOMM*%
%LPD*%
G01*
G04 APERTURE LIST*
%ADD10C,0.100000*%
%ADD11C,0.150000*%
%ADD12C,0.120000*%
G04 APERTURE END LIST*
D10*
X146357142Y-91872419D02*
X145880952Y-91872419D01*
X145880952Y-91872419D02*
X145833333Y-92348609D01*
X145833333Y-92348609D02*
X145880952Y-92300990D01*
X145880952Y-92300990D02*
X145976190Y-92253371D01*
X145976190Y-92253371D02*
X146214285Y-92253371D01*
X146214285Y-92253371D02*
X146309523Y-92300990D01*
X146309523Y-92300990D02*
X146357142Y-92348609D01*
X146357142Y-92348609D02*
X146404761Y-92443847D01*
X146404761Y-92443847D02*
X146404761Y-92681942D01*
X146404761Y-92681942D02*
X146357142Y-92777180D01*
X146357142Y-92777180D02*
X146309523Y-92824800D01*
X146309523Y-92824800D02*
X146214285Y-92872419D01*
X146214285Y-92872419D02*
X145976190Y-92872419D01*
X145976190Y-92872419D02*
X145880952Y-92824800D01*
X145880952Y-92824800D02*
X145833333Y-92777180D01*
X147309523Y-91872419D02*
X146833333Y-91872419D01*
X146833333Y-91872419D02*
X146785714Y-92348609D01*
X146785714Y-92348609D02*
X146833333Y-92300990D01*
X146833333Y-92300990D02*
X146928571Y-92253371D01*
X146928571Y-92253371D02*
X147166666Y-92253371D01*
X147166666Y-92253371D02*
X147261904Y-92300990D01*
X147261904Y-92300990D02*
X147309523Y-92348609D01*
X147309523Y-92348609D02*
X147357142Y-92443847D01*
X147357142Y-92443847D02*
X147357142Y-92681942D01*
X147357142Y-92681942D02*
X147309523Y-92777180D01*
X147309523Y-92777180D02*
X147261904Y-92824800D01*
X147261904Y-92824800D02*
X147166666Y-92872419D01*
X147166666Y-92872419D02*
X146928571Y-92872419D01*
X146928571Y-92872419D02*
X146833333Y-92824800D01*
X146833333Y-92824800D02*
X146785714Y-92777180D01*
X148261904Y-91872419D02*
X147785714Y-91872419D01*
X147785714Y-91872419D02*
X147738095Y-92348609D01*
X147738095Y-92348609D02*
X147785714Y-92300990D01*
X147785714Y-92300990D02*
X147880952Y-92253371D01*
X147880952Y-92253371D02*
X148119047Y-92253371D01*
X148119047Y-92253371D02*
X148214285Y-92300990D01*
X148214285Y-92300990D02*
X148261904Y-92348609D01*
X148261904Y-92348609D02*
X148309523Y-92443847D01*
X148309523Y-92443847D02*
X148309523Y-92681942D01*
X148309523Y-92681942D02*
X148261904Y-92777180D01*
X148261904Y-92777180D02*
X148214285Y-92824800D01*
X148214285Y-92824800D02*
X148119047Y-92872419D01*
X148119047Y-92872419D02*
X147880952Y-92872419D01*
X147880952Y-92872419D02*
X147785714Y-92824800D01*
X147785714Y-92824800D02*
X147738095Y-92777180D01*
X150071428Y-92777180D02*
X150023809Y-92824800D01*
X150023809Y-92824800D02*
X149880952Y-92872419D01*
X149880952Y-92872419D02*
X149785714Y-92872419D01*
X149785714Y-92872419D02*
X149642857Y-92824800D01*
X149642857Y-92824800D02*
X149547619Y-92729561D01*
X149547619Y-92729561D02*
X149500000Y-92634323D01*
X149500000Y-92634323D02*
X149452381Y-92443847D01*
X149452381Y-92443847D02*
X149452381Y-92300990D01*
X149452381Y-92300990D02*
X149500000Y-92110514D01*
X149500000Y-92110514D02*
X149547619Y-92015276D01*
X149547619Y-92015276D02*
X149642857Y-91920038D01*
X149642857Y-91920038D02*
X149785714Y-91872419D01*
X149785714Y-91872419D02*
X149880952Y-91872419D01*
X149880952Y-91872419D02*
X150023809Y-91920038D01*
X150023809Y-91920038D02*
X150071428Y-91967657D01*
X150642857Y-92872419D02*
X150547619Y-92824800D01*
X150547619Y-92824800D02*
X150500000Y-92729561D01*
X150500000Y-92729561D02*
X150500000Y-91872419D01*
X151166667Y-92872419D02*
X151071429Y-92824800D01*
X151071429Y-92824800D02*
X151023810Y-92777180D01*
X151023810Y-92777180D02*
X150976191Y-92681942D01*
X150976191Y-92681942D02*
X150976191Y-92396228D01*
X150976191Y-92396228D02*
X151023810Y-92300990D01*
X151023810Y-92300990D02*
X151071429Y-92253371D01*
X151071429Y-92253371D02*
X151166667Y-92205752D01*
X151166667Y-92205752D02*
X151309524Y-92205752D01*
X151309524Y-92205752D02*
X151404762Y-92253371D01*
X151404762Y-92253371D02*
X151452381Y-92300990D01*
X151452381Y-92300990D02*
X151500000Y-92396228D01*
X151500000Y-92396228D02*
X151500000Y-92681942D01*
X151500000Y-92681942D02*
X151452381Y-92777180D01*
X151452381Y-92777180D02*
X151404762Y-92824800D01*
X151404762Y-92824800D02*
X151309524Y-92872419D01*
X151309524Y-92872419D02*
X151166667Y-92872419D01*
X152357143Y-92824800D02*
X152261905Y-92872419D01*
X152261905Y-92872419D02*
X152071429Y-92872419D01*
X152071429Y-92872419D02*
X151976191Y-92824800D01*
X151976191Y-92824800D02*
X151928572Y-92777180D01*
X151928572Y-92777180D02*
X151880953Y-92681942D01*
X151880953Y-92681942D02*
X151880953Y-92396228D01*
X151880953Y-92396228D02*
X151928572Y-92300990D01*
X151928572Y-92300990D02*
X151976191Y-92253371D01*
X151976191Y-92253371D02*
X152071429Y-92205752D01*
X152071429Y-92205752D02*
X152261905Y-92205752D01*
X152261905Y-92205752D02*
X152357143Y-92253371D01*
X152785715Y-92872419D02*
X152785715Y-91872419D01*
X152880953Y-92491466D02*
X153166667Y-92872419D01*
X153166667Y-92205752D02*
X152785715Y-92586704D01*
X152904761Y-96777180D02*
X152857142Y-96824800D01*
X152857142Y-96824800D02*
X152714285Y-96872419D01*
X152714285Y-96872419D02*
X152619047Y-96872419D01*
X152619047Y-96872419D02*
X152476190Y-96824800D01*
X152476190Y-96824800D02*
X152380952Y-96729561D01*
X152380952Y-96729561D02*
X152333333Y-96634323D01*
X152333333Y-96634323D02*
X152285714Y-96443847D01*
X152285714Y-96443847D02*
X152285714Y-96300990D01*
X152285714Y-96300990D02*
X152333333Y-96110514D01*
X152333333Y-96110514D02*
X152380952Y-96015276D01*
X152380952Y-96015276D02*
X152476190Y-95920038D01*
X152476190Y-95920038D02*
X152619047Y-95872419D01*
X152619047Y-95872419D02*
X152714285Y-95872419D01*
X152714285Y-95872419D02*
X152857142Y-95920038D01*
X152857142Y-95920038D02*
X152904761Y-95967657D01*
X153809523Y-96872419D02*
X153333333Y-96872419D01*
X153333333Y-96872419D02*
X153333333Y-95872419D01*
X154142857Y-96872419D02*
X154142857Y-95872419D01*
X154714285Y-96872419D02*
X154285714Y-96300990D01*
X154714285Y-95872419D02*
X154142857Y-96443847D01*
D11*
X141833333Y-107859580D02*
X141785714Y-107907200D01*
X141785714Y-107907200D02*
X141642857Y-107954819D01*
X141642857Y-107954819D02*
X141547619Y-107954819D01*
X141547619Y-107954819D02*
X141404762Y-107907200D01*
X141404762Y-107907200D02*
X141309524Y-107811961D01*
X141309524Y-107811961D02*
X141261905Y-107716723D01*
X141261905Y-107716723D02*
X141214286Y-107526247D01*
X141214286Y-107526247D02*
X141214286Y-107383390D01*
X141214286Y-107383390D02*
X141261905Y-107192914D01*
X141261905Y-107192914D02*
X141309524Y-107097676D01*
X141309524Y-107097676D02*
X141404762Y-107002438D01*
X141404762Y-107002438D02*
X141547619Y-106954819D01*
X141547619Y-106954819D02*
X141642857Y-106954819D01*
X141642857Y-106954819D02*
X141785714Y-107002438D01*
X141785714Y-107002438D02*
X141833333Y-107050057D01*
X142785714Y-107954819D02*
X142214286Y-107954819D01*
X142500000Y-107954819D02*
X142500000Y-106954819D01*
X142500000Y-106954819D02*
X142404762Y-107097676D01*
X142404762Y-107097676D02*
X142309524Y-107192914D01*
X142309524Y-107192914D02*
X142214286Y-107240533D01*
X152166667Y-98369819D02*
X152500000Y-99369819D01*
X152500000Y-99369819D02*
X152833333Y-98369819D01*
X153738095Y-99274580D02*
X153690476Y-99322200D01*
X153690476Y-99322200D02*
X153547619Y-99369819D01*
X153547619Y-99369819D02*
X153452381Y-99369819D01*
X153452381Y-99369819D02*
X153309524Y-99322200D01*
X153309524Y-99322200D02*
X153214286Y-99226961D01*
X153214286Y-99226961D02*
X153166667Y-99131723D01*
X153166667Y-99131723D02*
X153119048Y-98941247D01*
X153119048Y-98941247D02*
X153119048Y-98798390D01*
X153119048Y-98798390D02*
X153166667Y-98607914D01*
X153166667Y-98607914D02*
X153214286Y-98512676D01*
X153214286Y-98512676D02*
X153309524Y-98417438D01*
X153309524Y-98417438D02*
X153452381Y-98369819D01*
X153452381Y-98369819D02*
X153547619Y-98369819D01*
X153547619Y-98369819D02*
X153690476Y-98417438D01*
X153690476Y-98417438D02*
X153738095Y-98465057D01*
X154738095Y-99274580D02*
X154690476Y-99322200D01*
X154690476Y-99322200D02*
X154547619Y-99369819D01*
X154547619Y-99369819D02*
X154452381Y-99369819D01*
X154452381Y-99369819D02*
X154309524Y-99322200D01*
X154309524Y-99322200D02*
X154214286Y-99226961D01*
X154214286Y-99226961D02*
X154166667Y-99131723D01*
X154166667Y-99131723D02*
X154119048Y-98941247D01*
X154119048Y-98941247D02*
X154119048Y-98798390D01*
X154119048Y-98798390D02*
X154166667Y-98607914D01*
X154166667Y-98607914D02*
X154214286Y-98512676D01*
X154214286Y-98512676D02*
X154309524Y-98417438D01*
X154309524Y-98417438D02*
X154452381Y-98369819D01*
X154452381Y-98369819D02*
X154547619Y-98369819D01*
X154547619Y-98369819D02*
X154690476Y-98417438D01*
X154690476Y-98417438D02*
X154738095Y-98465057D01*
X152738095Y-100917438D02*
X152642857Y-100869819D01*
X152642857Y-100869819D02*
X152500000Y-100869819D01*
X152500000Y-100869819D02*
X152357143Y-100917438D01*
X152357143Y-100917438D02*
X152261905Y-101012676D01*
X152261905Y-101012676D02*
X152214286Y-101107914D01*
X152214286Y-101107914D02*
X152166667Y-101298390D01*
X152166667Y-101298390D02*
X152166667Y-101441247D01*
X152166667Y-101441247D02*
X152214286Y-101631723D01*
X152214286Y-101631723D02*
X152261905Y-101726961D01*
X152261905Y-101726961D02*
X152357143Y-101822200D01*
X152357143Y-101822200D02*
X152500000Y-101869819D01*
X152500000Y-101869819D02*
X152595238Y-101869819D01*
X152595238Y-101869819D02*
X152738095Y-101822200D01*
X152738095Y-101822200D02*
X152785714Y-101774580D01*
X152785714Y-101774580D02*
X152785714Y-101441247D01*
X152785714Y-101441247D02*
X152595238Y-101441247D01*
X153214286Y-101869819D02*
X153214286Y-100869819D01*
X153214286Y-100869819D02*
X153785714Y-101869819D01*
X153785714Y-101869819D02*
X153785714Y-100869819D01*
X154261905Y-101869819D02*
X154261905Y-100869819D01*
X154261905Y-100869819D02*
X154500000Y-100869819D01*
X154500000Y-100869819D02*
X154642857Y-100917438D01*
X154642857Y-100917438D02*
X154738095Y-101012676D01*
X154738095Y-101012676D02*
X154785714Y-101107914D01*
X154785714Y-101107914D02*
X154833333Y-101298390D01*
X154833333Y-101298390D02*
X154833333Y-101441247D01*
X154833333Y-101441247D02*
X154785714Y-101631723D01*
X154785714Y-101631723D02*
X154738095Y-101726961D01*
X154738095Y-101726961D02*
X154642857Y-101822200D01*
X154642857Y-101822200D02*
X154500000Y-101869819D01*
X154500000Y-101869819D02*
X154261905Y-101869819D01*
X137738095Y-91814819D02*
X137738095Y-92624342D01*
X137738095Y-92624342D02*
X137785714Y-92719580D01*
X137785714Y-92719580D02*
X137833333Y-92767200D01*
X137833333Y-92767200D02*
X137928571Y-92814819D01*
X137928571Y-92814819D02*
X138119047Y-92814819D01*
X138119047Y-92814819D02*
X138214285Y-92767200D01*
X138214285Y-92767200D02*
X138261904Y-92719580D01*
X138261904Y-92719580D02*
X138309523Y-92624342D01*
X138309523Y-92624342D02*
X138309523Y-91814819D01*
X139309523Y-92814819D02*
X138738095Y-92814819D01*
X139023809Y-92814819D02*
X139023809Y-91814819D01*
X139023809Y-91814819D02*
X138928571Y-91957676D01*
X138928571Y-91957676D02*
X138833333Y-92052914D01*
X138833333Y-92052914D02*
X138738095Y-92100533D01*
X138333333Y-85584819D02*
X138000000Y-85108628D01*
X137761905Y-85584819D02*
X137761905Y-84584819D01*
X137761905Y-84584819D02*
X138142857Y-84584819D01*
X138142857Y-84584819D02*
X138238095Y-84632438D01*
X138238095Y-84632438D02*
X138285714Y-84680057D01*
X138285714Y-84680057D02*
X138333333Y-84775295D01*
X138333333Y-84775295D02*
X138333333Y-84918152D01*
X138333333Y-84918152D02*
X138285714Y-85013390D01*
X138285714Y-85013390D02*
X138238095Y-85061009D01*
X138238095Y-85061009D02*
X138142857Y-85108628D01*
X138142857Y-85108628D02*
X137761905Y-85108628D01*
X139285714Y-85584819D02*
X138714286Y-85584819D01*
X139000000Y-85584819D02*
X139000000Y-84584819D01*
X139000000Y-84584819D02*
X138904762Y-84727676D01*
X138904762Y-84727676D02*
X138809524Y-84822914D01*
X138809524Y-84822914D02*
X138714286Y-84870533D01*
X149166666Y-102914819D02*
X149166666Y-103629104D01*
X149166666Y-103629104D02*
X149119047Y-103771961D01*
X149119047Y-103771961D02*
X149023809Y-103867200D01*
X149023809Y-103867200D02*
X148880952Y-103914819D01*
X148880952Y-103914819D02*
X148785714Y-103914819D01*
X150166666Y-103914819D02*
X149595238Y-103914819D01*
X149880952Y-103914819D02*
X149880952Y-102914819D01*
X149880952Y-102914819D02*
X149785714Y-103057676D01*
X149785714Y-103057676D02*
X149690476Y-103152914D01*
X149690476Y-103152914D02*
X149595238Y-103200533D01*
X131324819Y-98856666D02*
X130848628Y-99189999D01*
X131324819Y-99428094D02*
X130324819Y-99428094D01*
X130324819Y-99428094D02*
X130324819Y-99047142D01*
X130324819Y-99047142D02*
X130372438Y-98951904D01*
X130372438Y-98951904D02*
X130420057Y-98904285D01*
X130420057Y-98904285D02*
X130515295Y-98856666D01*
X130515295Y-98856666D02*
X130658152Y-98856666D01*
X130658152Y-98856666D02*
X130753390Y-98904285D01*
X130753390Y-98904285D02*
X130801009Y-98951904D01*
X130801009Y-98951904D02*
X130848628Y-99047142D01*
X130848628Y-99047142D02*
X130848628Y-99428094D01*
X130420057Y-98475713D02*
X130372438Y-98428094D01*
X130372438Y-98428094D02*
X130324819Y-98332856D01*
X130324819Y-98332856D02*
X130324819Y-98094761D01*
X130324819Y-98094761D02*
X130372438Y-97999523D01*
X130372438Y-97999523D02*
X130420057Y-97951904D01*
X130420057Y-97951904D02*
X130515295Y-97904285D01*
X130515295Y-97904285D02*
X130610533Y-97904285D01*
X130610533Y-97904285D02*
X130753390Y-97951904D01*
X130753390Y-97951904D02*
X131324819Y-98523332D01*
X131324819Y-98523332D02*
X131324819Y-97904285D01*
%TO.C,U1*%
D12*
X135850000Y-93360000D02*
X135850000Y-103640000D01*
X135850000Y-103640000D02*
X141150000Y-103640000D01*
X137500000Y-93360000D02*
X135850000Y-93360000D01*
X141150000Y-93360000D02*
X139500000Y-93360000D01*
X141150000Y-103640000D02*
X141150000Y-93360000D01*
X139500000Y-93360000D02*
G75*
G02*
X137500000Y-93360000I-1000000J0D01*
G01*
%TO.C,R1*%
X135230000Y-86130000D02*
X141770000Y-86130000D01*
X135230000Y-86460000D02*
X135230000Y-86130000D01*
X135230000Y-88540000D02*
X135230000Y-88870000D01*
X135230000Y-88870000D02*
X141770000Y-88870000D01*
X141770000Y-86130000D02*
X141770000Y-86460000D01*
X141770000Y-88870000D02*
X141770000Y-88540000D01*
%TO.C,J1*%
X148120000Y-99810000D02*
X148120000Y-94620000D01*
X150880000Y-94620000D02*
X148120000Y-94620000D01*
X150880000Y-99810000D02*
X148120000Y-99810000D01*
X150880000Y-99810000D02*
X150880000Y-94620000D01*
X150880000Y-101080000D02*
X150880000Y-102460000D01*
X150880000Y-102460000D02*
X149500000Y-102460000D01*
%TO.C,R2*%
X127130000Y-95420000D02*
X127130000Y-101960000D01*
X127130000Y-101960000D02*
X127460000Y-101960000D01*
X127460000Y-95420000D02*
X127130000Y-95420000D01*
X129540000Y-95420000D02*
X129870000Y-95420000D01*
X129870000Y-95420000D02*
X129870000Y-101960000D01*
X129870000Y-101960000D02*
X129540000Y-101960000D01*
%TO.C,C1*%
X136230199Y-106305000D02*
X136630199Y-106305000D01*
X136430199Y-106105000D02*
X136430199Y-106505000D01*
X138500000Y-105420000D02*
X138500000Y-109580000D01*
X138540000Y-105420000D02*
X138540000Y-109580000D01*
X138580000Y-105422000D02*
X138580000Y-109578000D01*
X138620000Y-105423000D02*
X138620000Y-109577000D01*
X138660000Y-105426000D02*
X138660000Y-109574000D01*
X138700000Y-105429000D02*
X138700000Y-106660000D01*
X138700000Y-108340000D02*
X138700000Y-109571000D01*
X138740000Y-105434000D02*
X138740000Y-106660000D01*
X138740000Y-108340000D02*
X138740000Y-109566000D01*
X138780000Y-105439000D02*
X138780000Y-106660000D01*
X138780000Y-108340000D02*
X138780000Y-109561000D01*
X138820000Y-105444000D02*
X138820000Y-106660000D01*
X138820000Y-108340000D02*
X138820000Y-109556000D01*
X138860000Y-105451000D02*
X138860000Y-106660000D01*
X138860000Y-108340000D02*
X138860000Y-109549000D01*
X138900000Y-105458000D02*
X138900000Y-106660000D01*
X138900000Y-108340000D02*
X138900000Y-109542000D01*
X138940000Y-105466000D02*
X138940000Y-106660000D01*
X138940000Y-108340000D02*
X138940000Y-109534000D01*
X138980000Y-105475000D02*
X138980000Y-106660000D01*
X138980000Y-108340000D02*
X138980000Y-109525000D01*
X139020000Y-105485000D02*
X139020000Y-106660000D01*
X139020000Y-108340000D02*
X139020000Y-109515000D01*
X139060000Y-105495000D02*
X139060000Y-106660000D01*
X139060000Y-108340000D02*
X139060000Y-109505000D01*
X139100000Y-105507000D02*
X139100000Y-106660000D01*
X139100000Y-108340000D02*
X139100000Y-109493000D01*
X139140000Y-105519000D02*
X139140000Y-106660000D01*
X139140000Y-108340000D02*
X139140000Y-109481000D01*
X139180000Y-105532000D02*
X139180000Y-106660000D01*
X139180000Y-108340000D02*
X139180000Y-109468000D01*
X139220000Y-105546000D02*
X139220000Y-106660000D01*
X139220000Y-108340000D02*
X139220000Y-109454000D01*
X139260000Y-105561000D02*
X139260000Y-106660000D01*
X139260000Y-108340000D02*
X139260000Y-109439000D01*
X139300000Y-105577000D02*
X139300000Y-106660000D01*
X139300000Y-108340000D02*
X139300000Y-109423000D01*
X139340000Y-105594000D02*
X139340000Y-106660000D01*
X139340000Y-108340000D02*
X139340000Y-109406000D01*
X139380000Y-105611000D02*
X139380000Y-106660000D01*
X139380000Y-108340000D02*
X139380000Y-109389000D01*
X139420000Y-105630000D02*
X139420000Y-106660000D01*
X139420000Y-108340000D02*
X139420000Y-109370000D01*
X139460000Y-105650000D02*
X139460000Y-106660000D01*
X139460000Y-108340000D02*
X139460000Y-109350000D01*
X139500000Y-105671000D02*
X139500000Y-106660000D01*
X139500000Y-108340000D02*
X139500000Y-109329000D01*
X139540000Y-105693000D02*
X139540000Y-106660000D01*
X139540000Y-108340000D02*
X139540000Y-109307000D01*
X139580000Y-105716000D02*
X139580000Y-106660000D01*
X139580000Y-108340000D02*
X139580000Y-109284000D01*
X139620000Y-105740000D02*
X139620000Y-106660000D01*
X139620000Y-108340000D02*
X139620000Y-109260000D01*
X139660000Y-105766000D02*
X139660000Y-106660000D01*
X139660000Y-108340000D02*
X139660000Y-109234000D01*
X139700000Y-105792000D02*
X139700000Y-106660000D01*
X139700000Y-108340000D02*
X139700000Y-109208000D01*
X139740000Y-105820000D02*
X139740000Y-106660000D01*
X139740000Y-108340000D02*
X139740000Y-109180000D01*
X139780000Y-105850000D02*
X139780000Y-106660000D01*
X139780000Y-108340000D02*
X139780000Y-109150000D01*
X139820000Y-105881000D02*
X139820000Y-106660000D01*
X139820000Y-108340000D02*
X139820000Y-109119000D01*
X139860000Y-105914000D02*
X139860000Y-106660000D01*
X139860000Y-108340000D02*
X139860000Y-109086000D01*
X139900000Y-105948000D02*
X139900000Y-106660000D01*
X139900000Y-108340000D02*
X139900000Y-109052000D01*
X139940000Y-105984000D02*
X139940000Y-106660000D01*
X139940000Y-108340000D02*
X139940000Y-109016000D01*
X139980000Y-106022000D02*
X139980000Y-106660000D01*
X139980000Y-108340000D02*
X139980000Y-108978000D01*
X140020000Y-106062000D02*
X140020000Y-106660000D01*
X140020000Y-108340000D02*
X140020000Y-108938000D01*
X140060000Y-106104000D02*
X140060000Y-106660000D01*
X140060000Y-108340000D02*
X140060000Y-108896000D01*
X140100000Y-106149000D02*
X140100000Y-106660000D01*
X140100000Y-108340000D02*
X140100000Y-108851000D01*
X140140000Y-106197000D02*
X140140000Y-106660000D01*
X140140000Y-108340000D02*
X140140000Y-108803000D01*
X140180000Y-106247000D02*
X140180000Y-106660000D01*
X140180000Y-108340000D02*
X140180000Y-108753000D01*
X140220000Y-106301000D02*
X140220000Y-106660000D01*
X140220000Y-108340000D02*
X140220000Y-108699000D01*
X140260000Y-106358000D02*
X140260000Y-106660000D01*
X140260000Y-108340000D02*
X140260000Y-108642000D01*
X140300000Y-106420000D02*
X140300000Y-106660000D01*
X140300000Y-108340000D02*
X140300000Y-108580000D01*
X140340000Y-106487000D02*
X140340000Y-108513000D01*
X140380000Y-106560000D02*
X140380000Y-108440000D01*
X140420000Y-106641000D02*
X140420000Y-108359000D01*
X140460000Y-106732000D02*
X140460000Y-108268000D01*
X140500000Y-106837000D02*
X140500000Y-108163000D01*
X140540000Y-106963000D02*
X140540000Y-108037000D01*
X140580000Y-107130000D02*
X140580000Y-107870000D01*
X140620000Y-107500000D02*
G75*
G02*
X136380000Y-107500000I-2120000J0D01*
G01*
X136380000Y-107500000D02*
G75*
G02*
X140620000Y-107500000I2120000J0D01*
G01*
%TD*%
M02*
